<svg width="340" height="340" viewBox="0 0 340 340" fill="none" xmlns="http://www.w3.org/2000/svg">
<path d="M170 340C124.913 340 81.673 322.089 49.7918 290.208C17.9107 258.327 -1.25423e-06 215.087 0 170C1.25423e-06 124.913 17.9107 81.673 49.7918 49.7918C81.673 17.9107 124.913 -5.37655e-07 170 0L170 74.9526C144.792 74.9526 120.616 84.9665 102.791 102.791C84.9665 120.616 74.9526 144.792 74.9526 170C74.9526 195.208 84.9665 219.384 102.791 237.209C120.616 255.033 144.792 265.047 170 265.047L170 340Z" fill="#657ED4"/>
<rect x="170" width="163" height="75" fill="#657ED4"/>
<rect x="170" y="265" width="163" height="75" fill="#657ED4"/>
<rect x="163" y="133" width="170" height="75" fill="#FF331F"/>
</svg>
